<mxfile host="app.diagrams.net" modified="2023-11-07T23:45:20.659Z" agent="Mozilla/5.0 (Macintosh; Intel Mac OS X 10_15_7) AppleWebKit/605.1.15 (KHTML, like Gecko) Version/15.6 Safari/605.1.15" etag="BQZ3XQGW0I2Z3idw08I_" version="22.0.8" type="device">
  <diagram name="Page-1" id="yUJVbRALh6Ohsk7KYWx5">
    <mxGraphModel dx="2289" dy="2133" grid="1" gridSize="10" guides="1" tooltips="1" connect="1" arrows="1" fold="1" page="1" pageScale="1" pageWidth="1169" pageHeight="1654" math="0" shadow="0">
      <root>
        <mxCell id="0" />
        <mxCell id="1" parent="0" />
        <mxCell id="XJ2Jlw9GH5_GoQ7T7-Vw-28" style="edgeStyle=orthogonalEdgeStyle;rounded=0;orthogonalLoop=1;jettySize=auto;html=1;exitX=1;exitY=0.5;exitDx=0;exitDy=0;entryX=0;entryY=0.5;entryDx=0;entryDy=0;" edge="1" parent="1" source="XJ2Jlw9GH5_GoQ7T7-Vw-1" target="XJ2Jlw9GH5_GoQ7T7-Vw-3">
          <mxGeometry relative="1" as="geometry" />
        </mxCell>
        <mxCell id="XJ2Jlw9GH5_GoQ7T7-Vw-1" value="&lt;font color=&quot;#b3b3b3&quot;&gt;GET&lt;/font&gt;&lt;br&gt;/home" style="rounded=1;whiteSpace=wrap;html=1;fillColor=#dae8fc;strokeColor=#6c8ebf;" vertex="1" parent="1">
          <mxGeometry x="80" y="250" width="80" height="50" as="geometry" />
        </mxCell>
        <mxCell id="XJ2Jlw9GH5_GoQ7T7-Vw-11" style="edgeStyle=orthogonalEdgeStyle;rounded=0;orthogonalLoop=1;jettySize=auto;html=1;exitX=0.25;exitY=1;exitDx=0;exitDy=0;entryX=0;entryY=0.5;entryDx=0;entryDy=0;" edge="1" parent="1" source="XJ2Jlw9GH5_GoQ7T7-Vw-2" target="XJ2Jlw9GH5_GoQ7T7-Vw-10">
          <mxGeometry relative="1" as="geometry" />
        </mxCell>
        <mxCell id="XJ2Jlw9GH5_GoQ7T7-Vw-2" value="&lt;font color=&quot;#b3b3b3&quot;&gt;GET&lt;/font&gt;&lt;br&gt;/:user_id/designs" style="rounded=1;whiteSpace=wrap;html=1;fillColor=#dae8fc;strokeColor=#6c8ebf;" vertex="1" parent="1">
          <mxGeometry x="400" y="250" width="120" height="50" as="geometry" />
        </mxCell>
        <mxCell id="XJ2Jlw9GH5_GoQ7T7-Vw-25" style="edgeStyle=orthogonalEdgeStyle;rounded=0;orthogonalLoop=1;jettySize=auto;html=1;exitX=1;exitY=0.5;exitDx=0;exitDy=0;entryX=0;entryY=0.5;entryDx=0;entryDy=0;" edge="1" parent="1" source="XJ2Jlw9GH5_GoQ7T7-Vw-3" target="XJ2Jlw9GH5_GoQ7T7-Vw-2">
          <mxGeometry relative="1" as="geometry" />
        </mxCell>
        <mxCell id="XJ2Jlw9GH5_GoQ7T7-Vw-26" style="edgeStyle=orthogonalEdgeStyle;rounded=0;orthogonalLoop=1;jettySize=auto;html=1;exitX=1;exitY=0.5;exitDx=0;exitDy=0;entryX=0;entryY=0.5;entryDx=0;entryDy=0;" edge="1" parent="1" source="XJ2Jlw9GH5_GoQ7T7-Vw-3" target="XJ2Jlw9GH5_GoQ7T7-Vw-4">
          <mxGeometry relative="1" as="geometry" />
        </mxCell>
        <mxCell id="XJ2Jlw9GH5_GoQ7T7-Vw-27" style="edgeStyle=orthogonalEdgeStyle;rounded=0;orthogonalLoop=1;jettySize=auto;html=1;exitX=1;exitY=0.5;exitDx=0;exitDy=0;entryX=0;entryY=0.5;entryDx=0;entryDy=0;" edge="1" parent="1" source="XJ2Jlw9GH5_GoQ7T7-Vw-3" target="XJ2Jlw9GH5_GoQ7T7-Vw-5">
          <mxGeometry relative="1" as="geometry" />
        </mxCell>
        <mxCell id="XJ2Jlw9GH5_GoQ7T7-Vw-3" value="&lt;font color=&quot;#b3b3b3&quot;&gt;&lt;span style=&quot;caret-color: rgb(179, 179, 179);&quot;&gt;AUTHENTICATION&lt;/span&gt;&lt;/font&gt;" style="rounded=1;whiteSpace=wrap;html=1;fillColor=#fff2cc;strokeColor=#d6b656;" vertex="1" parent="1">
          <mxGeometry x="210" y="250" width="130" height="50" as="geometry" />
        </mxCell>
        <mxCell id="XJ2Jlw9GH5_GoQ7T7-Vw-16" style="edgeStyle=orthogonalEdgeStyle;rounded=0;orthogonalLoop=1;jettySize=auto;html=1;exitX=0.25;exitY=1;exitDx=0;exitDy=0;entryX=0;entryY=0.5;entryDx=0;entryDy=0;" edge="1" parent="1" source="XJ2Jlw9GH5_GoQ7T7-Vw-4" target="XJ2Jlw9GH5_GoQ7T7-Vw-15">
          <mxGeometry relative="1" as="geometry" />
        </mxCell>
        <mxCell id="XJ2Jlw9GH5_GoQ7T7-Vw-4" value="&lt;font color=&quot;#b3b3b3&quot;&gt;GET&lt;/font&gt;&lt;br&gt;/:user_id/shops" style="rounded=1;whiteSpace=wrap;html=1;fillColor=#dae8fc;strokeColor=#6c8ebf;" vertex="1" parent="1">
          <mxGeometry x="420" y="540" width="120" height="50" as="geometry" />
        </mxCell>
        <mxCell id="XJ2Jlw9GH5_GoQ7T7-Vw-53" style="edgeStyle=orthogonalEdgeStyle;rounded=0;orthogonalLoop=1;jettySize=auto;html=1;exitX=0.5;exitY=1;exitDx=0;exitDy=0;entryX=0.25;entryY=0;entryDx=0;entryDy=0;" edge="1" parent="1" source="XJ2Jlw9GH5_GoQ7T7-Vw-5" target="XJ2Jlw9GH5_GoQ7T7-Vw-31">
          <mxGeometry relative="1" as="geometry" />
        </mxCell>
        <mxCell id="XJ2Jlw9GH5_GoQ7T7-Vw-54" style="edgeStyle=orthogonalEdgeStyle;rounded=0;orthogonalLoop=1;jettySize=auto;html=1;exitX=0.5;exitY=1;exitDx=0;exitDy=0;entryX=0.25;entryY=0;entryDx=0;entryDy=0;" edge="1" parent="1" source="XJ2Jlw9GH5_GoQ7T7-Vw-5" target="XJ2Jlw9GH5_GoQ7T7-Vw-44">
          <mxGeometry relative="1" as="geometry" />
        </mxCell>
        <mxCell id="XJ2Jlw9GH5_GoQ7T7-Vw-55" style="edgeStyle=orthogonalEdgeStyle;rounded=0;orthogonalLoop=1;jettySize=auto;html=1;exitX=0.25;exitY=1;exitDx=0;exitDy=0;entryX=0;entryY=0.5;entryDx=0;entryDy=0;" edge="1" parent="1" source="XJ2Jlw9GH5_GoQ7T7-Vw-5" target="XJ2Jlw9GH5_GoQ7T7-Vw-30">
          <mxGeometry relative="1" as="geometry" />
        </mxCell>
        <mxCell id="XJ2Jlw9GH5_GoQ7T7-Vw-56" style="edgeStyle=orthogonalEdgeStyle;rounded=0;orthogonalLoop=1;jettySize=auto;html=1;exitX=0.25;exitY=1;exitDx=0;exitDy=0;entryX=0;entryY=0.5;entryDx=0;entryDy=0;" edge="1" parent="1" source="XJ2Jlw9GH5_GoQ7T7-Vw-5" target="XJ2Jlw9GH5_GoQ7T7-Vw-51">
          <mxGeometry relative="1" as="geometry" />
        </mxCell>
        <mxCell id="XJ2Jlw9GH5_GoQ7T7-Vw-62" style="edgeStyle=orthogonalEdgeStyle;rounded=0;orthogonalLoop=1;jettySize=auto;html=1;exitX=0.25;exitY=1;exitDx=0;exitDy=0;entryX=0;entryY=0.5;entryDx=0;entryDy=0;" edge="1" parent="1" source="XJ2Jlw9GH5_GoQ7T7-Vw-5" target="XJ2Jlw9GH5_GoQ7T7-Vw-59">
          <mxGeometry relative="1" as="geometry" />
        </mxCell>
        <mxCell id="XJ2Jlw9GH5_GoQ7T7-Vw-65" style="edgeStyle=orthogonalEdgeStyle;rounded=0;orthogonalLoop=1;jettySize=auto;html=1;exitX=1;exitY=0.25;exitDx=0;exitDy=0;entryX=1;entryY=0.5;entryDx=0;entryDy=0;strokeColor=#B3B3B3;" edge="1" parent="1" source="XJ2Jlw9GH5_GoQ7T7-Vw-5" target="XJ2Jlw9GH5_GoQ7T7-Vw-4">
          <mxGeometry relative="1" as="geometry">
            <Array as="points">
              <mxPoint x="890" y="792" />
              <mxPoint x="890" y="565" />
            </Array>
          </mxGeometry>
        </mxCell>
        <mxCell id="XJ2Jlw9GH5_GoQ7T7-Vw-66" style="edgeStyle=orthogonalEdgeStyle;rounded=0;orthogonalLoop=1;jettySize=auto;html=1;exitX=1;exitY=0.75;exitDx=0;exitDy=0;entryX=1;entryY=0.5;entryDx=0;entryDy=0;strokeColor=#B3B3B3;" edge="1" parent="1" source="XJ2Jlw9GH5_GoQ7T7-Vw-5" target="XJ2Jlw9GH5_GoQ7T7-Vw-2">
          <mxGeometry relative="1" as="geometry">
            <Array as="points">
              <mxPoint x="920" y="818" />
              <mxPoint x="920" y="275" />
            </Array>
          </mxGeometry>
        </mxCell>
        <mxCell id="XJ2Jlw9GH5_GoQ7T7-Vw-5" value="&lt;font color=&quot;#b3b3b3&quot;&gt;GET&lt;/font&gt;&lt;br&gt;/:user_id/checkout" style="rounded=1;whiteSpace=wrap;html=1;fillColor=#dae8fc;strokeColor=#6c8ebf;" vertex="1" parent="1">
          <mxGeometry x="420" y="780" width="140" height="50" as="geometry" />
        </mxCell>
        <mxCell id="XJ2Jlw9GH5_GoQ7T7-Vw-6" value="&lt;font color=&quot;#b3b3b3&quot;&gt;&lt;span style=&quot;caret-color: rgb(179, 179, 179);&quot;&gt;POST&lt;/span&gt;&lt;/font&gt;&lt;br&gt;&lt;font color=&quot;#b3b3b3&quot;&gt;/:user_id/designs&lt;/font&gt;/:design_id/add_design_to_cart" style="rounded=1;whiteSpace=wrap;html=1;fillColor=#d5e8d4;strokeColor=#82b366;" vertex="1" parent="1">
          <mxGeometry x="530" y="390" width="320" height="50" as="geometry" />
        </mxCell>
        <mxCell id="XJ2Jlw9GH5_GoQ7T7-Vw-7" value="&lt;font color=&quot;#b3b3b3&quot;&gt;&lt;span style=&quot;caret-color: rgb(179, 179, 179);&quot;&gt;DELETE&lt;/span&gt;&lt;/font&gt;&lt;br&gt;&lt;font color=&quot;#b3b3b3&quot;&gt;/:user_id/designs&lt;/font&gt;/:design_id/remove_design_from_cart" style="rounded=1;whiteSpace=wrap;html=1;fillColor=#f8cecc;strokeColor=#b85450;" vertex="1" parent="1">
          <mxGeometry x="530" y="460" width="320" height="50" as="geometry" />
        </mxCell>
        <mxCell id="XJ2Jlw9GH5_GoQ7T7-Vw-12" style="edgeStyle=orthogonalEdgeStyle;rounded=0;orthogonalLoop=1;jettySize=auto;html=1;exitX=0.25;exitY=1;exitDx=0;exitDy=0;entryX=0;entryY=0.5;entryDx=0;entryDy=0;" edge="1" parent="1" source="XJ2Jlw9GH5_GoQ7T7-Vw-10" target="XJ2Jlw9GH5_GoQ7T7-Vw-6">
          <mxGeometry relative="1" as="geometry" />
        </mxCell>
        <mxCell id="XJ2Jlw9GH5_GoQ7T7-Vw-13" style="edgeStyle=orthogonalEdgeStyle;rounded=0;orthogonalLoop=1;jettySize=auto;html=1;exitX=0.25;exitY=1;exitDx=0;exitDy=0;entryX=0;entryY=0.5;entryDx=0;entryDy=0;" edge="1" parent="1" source="XJ2Jlw9GH5_GoQ7T7-Vw-10" target="XJ2Jlw9GH5_GoQ7T7-Vw-7">
          <mxGeometry relative="1" as="geometry" />
        </mxCell>
        <mxCell id="XJ2Jlw9GH5_GoQ7T7-Vw-10" value="&lt;font color=&quot;#b3b3b3&quot;&gt;GET&lt;br&gt;/:user_id/designs&lt;/font&gt;/:design_id" style="rounded=1;whiteSpace=wrap;html=1;fillColor=#dae8fc;strokeColor=#6c8ebf;" vertex="1" parent="1">
          <mxGeometry x="460" y="320" width="170" height="50" as="geometry" />
        </mxCell>
        <mxCell id="XJ2Jlw9GH5_GoQ7T7-Vw-18" style="edgeStyle=orthogonalEdgeStyle;rounded=0;orthogonalLoop=1;jettySize=auto;html=1;exitX=0.25;exitY=1;exitDx=0;exitDy=0;entryX=0;entryY=0.5;entryDx=0;entryDy=0;" edge="1" parent="1" source="XJ2Jlw9GH5_GoQ7T7-Vw-15" target="XJ2Jlw9GH5_GoQ7T7-Vw-17">
          <mxGeometry relative="1" as="geometry" />
        </mxCell>
        <mxCell id="XJ2Jlw9GH5_GoQ7T7-Vw-15" value="&lt;font color=&quot;#b3b3b3&quot;&gt;GET&lt;/font&gt;&lt;br&gt;&lt;font color=&quot;#b3b3b3&quot;&gt;/:user_id/shops&lt;/font&gt;/:shop_id" style="rounded=1;whiteSpace=wrap;html=1;fillColor=#dae8fc;strokeColor=#6c8ebf;" vertex="1" parent="1">
          <mxGeometry x="480" y="610" width="170" height="50" as="geometry" />
        </mxCell>
        <mxCell id="XJ2Jlw9GH5_GoQ7T7-Vw-17" value="&lt;font color=&quot;#b3b3b3&quot;&gt;&lt;span style=&quot;caret-color: rgb(179, 179, 179);&quot;&gt;UPDATE&lt;/span&gt;&lt;/font&gt;&lt;br&gt;&lt;font color=&quot;#b3b3b3&quot;&gt;/:user_id/shops/:shop_id&lt;/font&gt;/select_shop" style="rounded=1;whiteSpace=wrap;html=1;fillColor=#e1d5e7;strokeColor=#9673a6;" vertex="1" parent="1">
          <mxGeometry x="550" y="680" width="220" height="50" as="geometry" />
        </mxCell>
        <mxCell id="XJ2Jlw9GH5_GoQ7T7-Vw-30" value="&lt;font color=&quot;#b3b3b3&quot;&gt;&lt;span style=&quot;caret-color: rgb(179, 179, 179);&quot;&gt;DELETE&lt;/span&gt;&lt;/font&gt;&lt;br&gt;&lt;font color=&quot;#b3b3b3&quot;&gt;/:user_id/cart&lt;/font&gt;/:design_id/remove_design_from_cart" style="rounded=1;whiteSpace=wrap;html=1;fillColor=#f8cecc;strokeColor=#b85450;" vertex="1" parent="1">
          <mxGeometry x="505" y="1190" width="285" height="50" as="geometry" />
        </mxCell>
        <mxCell id="XJ2Jlw9GH5_GoQ7T7-Vw-40" style="edgeStyle=orthogonalEdgeStyle;rounded=0;orthogonalLoop=1;jettySize=auto;html=1;exitX=0.25;exitY=1;exitDx=0;exitDy=0;entryX=0;entryY=0.5;entryDx=0;entryDy=0;" edge="1" parent="1" source="XJ2Jlw9GH5_GoQ7T7-Vw-31" target="XJ2Jlw9GH5_GoQ7T7-Vw-32">
          <mxGeometry relative="1" as="geometry" />
        </mxCell>
        <mxCell id="XJ2Jlw9GH5_GoQ7T7-Vw-41" style="edgeStyle=orthogonalEdgeStyle;rounded=0;orthogonalLoop=1;jettySize=auto;html=1;exitX=0.25;exitY=1;exitDx=0;exitDy=0;entryX=0;entryY=0.5;entryDx=0;entryDy=0;" edge="1" parent="1" source="XJ2Jlw9GH5_GoQ7T7-Vw-31" target="XJ2Jlw9GH5_GoQ7T7-Vw-33">
          <mxGeometry relative="1" as="geometry" />
        </mxCell>
        <mxCell id="XJ2Jlw9GH5_GoQ7T7-Vw-42" style="edgeStyle=orthogonalEdgeStyle;rounded=0;orthogonalLoop=1;jettySize=auto;html=1;exitX=0.25;exitY=1;exitDx=0;exitDy=0;entryX=0;entryY=0.5;entryDx=0;entryDy=0;" edge="1" parent="1" source="XJ2Jlw9GH5_GoQ7T7-Vw-31" target="XJ2Jlw9GH5_GoQ7T7-Vw-34">
          <mxGeometry relative="1" as="geometry" />
        </mxCell>
        <mxCell id="XJ2Jlw9GH5_GoQ7T7-Vw-31" value="&lt;font color=&quot;#b3b3b3&quot;&gt;&lt;span style=&quot;caret-color: rgb(179, 179, 179);&quot;&gt;UPDATE&lt;/span&gt;&lt;/font&gt;&lt;br&gt;&lt;font color=&quot;#b3b3b3&quot;&gt;/:user_id/cart&lt;/font&gt;/:design_id/update_print_spec" style="rounded=1;whiteSpace=wrap;html=1;fillColor=#e1d5e7;strokeColor=#9673a6;" vertex="1" parent="1">
          <mxGeometry x="530" y="870" width="250" height="50" as="geometry" />
        </mxCell>
        <mxCell id="XJ2Jlw9GH5_GoQ7T7-Vw-32" value="Quantity" style="rounded=1;whiteSpace=wrap;html=1;" vertex="1" parent="1">
          <mxGeometry x="650" y="940" width="130" height="35" as="geometry" />
        </mxCell>
        <mxCell id="XJ2Jlw9GH5_GoQ7T7-Vw-33" value="Material" style="rounded=1;whiteSpace=wrap;html=1;" vertex="1" parent="1">
          <mxGeometry x="650" y="992.5" width="130" height="35" as="geometry" />
        </mxCell>
        <mxCell id="XJ2Jlw9GH5_GoQ7T7-Vw-34" value="Colour" style="rounded=1;whiteSpace=wrap;html=1;" vertex="1" parent="1">
          <mxGeometry x="650" y="1042.5" width="130" height="35" as="geometry" />
        </mxCell>
        <mxCell id="XJ2Jlw9GH5_GoQ7T7-Vw-48" style="edgeStyle=orthogonalEdgeStyle;rounded=0;orthogonalLoop=1;jettySize=auto;html=1;exitX=0.25;exitY=1;exitDx=0;exitDy=0;entryX=0;entryY=0.5;entryDx=0;entryDy=0;" edge="1" parent="1" source="XJ2Jlw9GH5_GoQ7T7-Vw-44" target="XJ2Jlw9GH5_GoQ7T7-Vw-45">
          <mxGeometry relative="1" as="geometry" />
        </mxCell>
        <mxCell id="XJ2Jlw9GH5_GoQ7T7-Vw-49" style="edgeStyle=orthogonalEdgeStyle;rounded=0;orthogonalLoop=1;jettySize=auto;html=1;exitX=0.25;exitY=1;exitDx=0;exitDy=0;entryX=0;entryY=0.5;entryDx=0;entryDy=0;" edge="1" parent="1" source="XJ2Jlw9GH5_GoQ7T7-Vw-44" target="XJ2Jlw9GH5_GoQ7T7-Vw-46">
          <mxGeometry relative="1" as="geometry" />
        </mxCell>
        <mxCell id="XJ2Jlw9GH5_GoQ7T7-Vw-50" style="edgeStyle=orthogonalEdgeStyle;rounded=0;orthogonalLoop=1;jettySize=auto;html=1;exitX=0.25;exitY=1;exitDx=0;exitDy=0;entryX=0;entryY=0.5;entryDx=0;entryDy=0;" edge="1" parent="1" source="XJ2Jlw9GH5_GoQ7T7-Vw-44" target="XJ2Jlw9GH5_GoQ7T7-Vw-47">
          <mxGeometry relative="1" as="geometry" />
        </mxCell>
        <mxCell id="XJ2Jlw9GH5_GoQ7T7-Vw-44" value="&lt;font color=&quot;#b3b3b3&quot;&gt;&lt;span style=&quot;caret-color: rgb(179, 179, 179);&quot;&gt;UPDATE&lt;/span&gt;&lt;/font&gt;&lt;br&gt;&lt;font color=&quot;#b3b3b3&quot;&gt;/:user_id/cart&lt;/font&gt;/:update_delivery_info" style="rounded=1;whiteSpace=wrap;html=1;fillColor=#e1d5e7;strokeColor=#9673a6;" vertex="1" parent="1">
          <mxGeometry x="810" y="870" width="250" height="50" as="geometry" />
        </mxCell>
        <mxCell id="XJ2Jlw9GH5_GoQ7T7-Vw-45" value="Address" style="rounded=1;whiteSpace=wrap;html=1;" vertex="1" parent="1">
          <mxGeometry x="920" y="940" width="130" height="35" as="geometry" />
        </mxCell>
        <mxCell id="XJ2Jlw9GH5_GoQ7T7-Vw-46" value="Delivery method" style="rounded=1;whiteSpace=wrap;html=1;" vertex="1" parent="1">
          <mxGeometry x="920" y="990" width="130" height="35" as="geometry" />
        </mxCell>
        <mxCell id="XJ2Jlw9GH5_GoQ7T7-Vw-47" value="Payment information" style="rounded=1;whiteSpace=wrap;html=1;" vertex="1" parent="1">
          <mxGeometry x="920" y="1042.5" width="130" height="35" as="geometry" />
        </mxCell>
        <mxCell id="XJ2Jlw9GH5_GoQ7T7-Vw-51" value="&lt;font color=&quot;#b3b3b3&quot;&gt;&lt;span style=&quot;caret-color: rgb(179, 179, 179);&quot;&gt;DELETE&lt;/span&gt;&lt;/font&gt;&lt;br&gt;&lt;font color=&quot;#b3b3b3&quot;&gt;/:user_id/cart&lt;/font&gt;/remove_shop" style="rounded=1;whiteSpace=wrap;html=1;fillColor=#f8cecc;strokeColor=#b85450;" vertex="1" parent="1">
          <mxGeometry x="505" y="1120" width="285" height="50" as="geometry" />
        </mxCell>
        <mxCell id="XJ2Jlw9GH5_GoQ7T7-Vw-63" style="edgeStyle=orthogonalEdgeStyle;rounded=0;orthogonalLoop=1;jettySize=auto;html=1;exitX=1;exitY=0.5;exitDx=0;exitDy=0;entryX=0;entryY=0.5;entryDx=0;entryDy=0;" edge="1" parent="1" source="XJ2Jlw9GH5_GoQ7T7-Vw-59" target="XJ2Jlw9GH5_GoQ7T7-Vw-61">
          <mxGeometry relative="1" as="geometry" />
        </mxCell>
        <mxCell id="XJ2Jlw9GH5_GoQ7T7-Vw-59" value="&lt;font color=&quot;#b3b3b3&quot;&gt;&lt;span style=&quot;caret-color: rgb(179, 179, 179);&quot;&gt;POST&lt;/span&gt;&lt;/font&gt;&lt;br&gt;&lt;font color=&quot;#b3b3b3&quot;&gt;/:user_id/cart&lt;/font&gt;/place_order" style="rounded=1;whiteSpace=wrap;html=1;fillColor=#d5e8d4;strokeColor=#82b366;" vertex="1" parent="1">
          <mxGeometry x="505" y="1300" width="285" height="50" as="geometry" />
        </mxCell>
        <mxCell id="XJ2Jlw9GH5_GoQ7T7-Vw-61" value="&lt;font color=&quot;#b3b3b3&quot;&gt;GET&lt;/font&gt;&lt;br&gt;&lt;font color=&quot;#b3b3b3&quot;&gt;/:user_id&lt;/font&gt;/:order_id/confirmation" style="rounded=1;whiteSpace=wrap;html=1;fillColor=#dae8fc;strokeColor=#6c8ebf;" vertex="1" parent="1">
          <mxGeometry x="880" y="1300" width="230" height="50" as="geometry" />
        </mxCell>
        <mxCell id="XJ2Jlw9GH5_GoQ7T7-Vw-67" value="&lt;font color=&quot;#b3b3b3&quot;&gt;&lt;span style=&quot;caret-color: rgb(179, 179, 179);&quot;&gt;Browse designs&lt;/span&gt;&lt;/font&gt;" style="text;html=1;strokeColor=none;fillColor=none;align=center;verticalAlign=middle;whiteSpace=wrap;rounded=0;" vertex="1" parent="1">
          <mxGeometry x="635" y="240" width="110" height="30" as="geometry" />
        </mxCell>
        <mxCell id="XJ2Jlw9GH5_GoQ7T7-Vw-68" value="&lt;font color=&quot;#b3b3b3&quot;&gt;&lt;span style=&quot;caret-color: rgb(179, 179, 179);&quot;&gt;Browse shops&lt;/span&gt;&lt;/font&gt;" style="text;html=1;strokeColor=none;fillColor=none;align=center;verticalAlign=middle;whiteSpace=wrap;rounded=0;" vertex="1" parent="1">
          <mxGeometry x="635" y="530" width="110" height="30" as="geometry" />
        </mxCell>
      </root>
    </mxGraphModel>
  </diagram>
</mxfile>
